<svg xmlns="http://www.w3.org/2000/svg" viewBox="-300 -54 262 260"><g fill="none"><path fill="#E46E2E" d="M-168.742663 151.273607c-42.5897207 0-79.6769468-15.311295-98.984434-37.933226 14.6111241 40.554155 53.4107285 69.548909 98.984434 69.548909 45.573705 0 84.373959-28.994754 98.985083-69.548909-19.307487 22.621931-56.394713 37.933226-98.985083 37.933226m0-147.2331025c42.59037 0 79.677596 15.3119461 98.985083 37.9332264-14.611124-40.554155-53.411378-69.5489093-98.985083-69.5489093-45.5737055 0-84.3733099 28.9947543-98.984434 69.5489093 19.3074872-22.6212803 56.3947133-37.9332264 98.984434-37.9332264"/><path fill="#767474" d="M-248.5434562 205.864602c-9.1317169.390998-16.8515907-6.694473-17.2425923-15.826102-.3916436-9.131629 6.6945379-16.851428 15.8262549-17.243068 9.1317169-.390998 16.8515907 6.694474 17.2425923 15.826102.3916436 9.131629-6.6938959 16.85207-15.8262549 17.243068zM-261.2426009-9.6349041c-5.7072067.24434-10.5325822-4.1840754-10.7769133-9.8914889-.2443312-5.7080721 4.1839239-10.5329638 9.8911306-10.7773038 5.7078652-.2449986 10.5332407 4.1840755 10.7775718 9.891489.2443312 5.7074135-4.1839238 10.5329637-9.8917891 10.7773037zM-97.018016-21.890051c-8.86307.3794849-16.355957-6.4969905-16.735439-15.3601365-.379482-8.8623961 6.497685-16.35534684 15.360006-16.7348317 8.863071-.37948483 16.355208 6.49699054 16.734689 15.3601366.380232 8.862396-6.496935 16.3553468-15.359256 16.7348316z"/><path fill="#313940" d="M-289.0896599 91.6196872c0 9.5317736-.7449776 12.6539028-2.73258975 14.9543403-1.7380296 1.8895916-4.635751 2.7936022-7.9474326 3.0405587l.74497755 5.6695232c3.89077346 0 9.1900672-1.3148564 12.418806-4.5193045 3.5597561-3.6152939 4.8016367-8.627763 4.8016367-16.3515155V58.3411727h-7.2853979v33.2785145m54.3946718-4.3546667c0 4.1077102.0821888 7.7237525.3310173 10.8458816h-6.4582315l-.4139602-6.4912149h-.1651316c-1.9046694 3.2044481-6.1272142 7.3944772-13.2467264 7.3944772-6.2923459 0-13.8265723-3.4506562-13.8265723-17.4186671V58.3411727h7.2861519v22.0210387c0 7.5591148 2.3178755 12.6546511 8.9412387 12.6546511 4.8845796 0 8.279204-3.3690857 9.6040275-6.5742821.4139602-1.0678999.6620347-2.3827563.6620347-3.6976127v-24.403795h7.2861519v28.9238478m13.7443834-15.941418c0-5.0940397-.1651316-9.2032466-.3310173-12.9824298h6.5404203l.3310174 6.8197419h.1658857c2.9806642-4.8478315 7.6993581-7.7237525 14.2397784-7.7237525 9.6869702 0 16.9723682 8.1345983 16.9723682 20.2137659 0 14.2972863-8.776107 21.3632364-18.2142488 21.3632364-5.2985397 0-9.9350448-2.3004375-12.3358631-6.2442584h-.1651317v21.6101928h-7.2032091V71.3236025zm7.2032091 10.5996735c0 1.0686482.1651317 2.0549776.3310174 2.9582398 1.3240694 5.0124692 5.7124999 8.4631254 10.9280968 8.4631254 7.6993584 0 12.1707314-6.2442584 12.1707314-15.3651861 0-7.9699607-4.222545-14.790451-11.9219028-14.790451-4.9675224 0-9.6040275 3.5337234-11.0117938 8.9562901-.2480745.9040105-.496149 1.9719104-.496149 2.9582398v6.819742zm43.6317066-23.5821033l8.776107 23.5005328c.910863 2.6297128 1.903915 5.7510936 2.566704 8.1345983h.165132c.745731-2.3835047 1.573652-5.423315 2.566704-8.299236l7.948186-23.3358951h7.699359l-10.928097 28.3483642c-5.216351 13.6394839-8.776107 20.6246118-13.74363 24.8969598-3.559756 3.1221291-7.120266 4.3546667-8.941238 4.6831937l-1.821727-6.0796207c1.821727-.5754835 4.222545-1.7264506 6.375289-3.5337234 1.986858-1.5618129 4.470619-4.3554151 6.12646-8.0522795.331017-.7393728.579092-1.3148564.579092-1.7257022 0-.4115942-.165132-.9855811-.496903-1.8895916l-14.818871-36.6476003h7.947433m48.882743-11.42136525V58.3411727h10.431948v5.5056338h-10.431948v21.4455552c0 4.9301503 1.407766 7.7245008 5.464425 7.7245008 1.903916 0 3.311682-.2469565 4.222545-.4931647l.331017 5.4225667c-1.407766.5754835-3.642699.9863294-6.457477.9863294-3.394625 0-6.127214-1.0678999-7.865998-3.0398104-2.069047-2.1372965-2.814778-5.6702715-2.814778-10.3542137V63.8468065h-6.208649v-5.5056338h6.208649v-9.53177364l7.120266-1.8895916m23.84456 32.62071214c.165131 9.7779818 6.458231 13.8041216 13.743629 13.8041216 5.215597 0 8.361393-.9032622 11.093983-2.0542293l1.24188 5.1763585c-2.566704 1.150967-6.95438 2.4658235-13.329669 2.4658235-12.335863 0-19.704204-8.0530279-19.704204-20.0491283 0-11.9968487 7.119512-21.4463035 18.794095-21.4463035 13.08084 0 16.557654 11.4213652 16.557654 18.7342718 0 1.4794941-.165132 2.6297129-.248075 3.3690857h-28.149293zm21.360044-5.1763584c.082943-4.6016233-1.903915-11.7506406-10.100176-11.7506406-7.368341 0-10.597834 6.7381714-11.176925 11.7506406h21.277101zm17.718854-3.6160423c0-4.6831938-.082943-8.7100819-.331771-12.4069462h6.375288l.248829 7.8060713h.331017c1.820973-5.3409962 6.209403-8.7100819 11.093983-8.7100819.82792 0 1.407766.0823188 2.069801.2469565v6.8197419c-.744978-.1638893-1.490709-.2462081-2.483761-.2462081-5.133408 0-8.776107 3.861502-9.769159 9.2840687-.165886.9863294-.331772 2.1372965-.331772 3.3690857v21.2000953h-7.202455V70.7481189"/></g></svg>
